<svg width="44" height="44" viewBox="0 0 44 44" fill="none" xmlns="http://www.w3.org/2000/svg">
    <path d="M22 1C10.402 1 1 10.402 1 22C1 33.5979 10.402 43 22 43C33.5979 43 43 33.5979 43 22C43 10.402 33.5979 1 22 1Z"
          stroke="white" stroke-width="2" stroke-linecap="round" stroke-linejoin="round"/>
    <path d="M5.76904 35.326C5.76904 35.326 10.45 29.35 21.9999 29.35C33.5499 29.35 38.2311 35.326 38.2311 35.326"
          stroke="white" stroke-width="2" stroke-linecap="round" stroke-linejoin="round"/>
    <path d="M22 22C25.4794 22 28.3 19.1795 28.3 15.7C28.3 12.2206 25.4794 9.39999 22 9.39999C18.5205 9.39999 15.7 12.2206 15.7 15.7C15.7 19.1795 18.5205 22 22 22Z"
          stroke="white" stroke-width="2" stroke-linecap="round" stroke-linejoin="round"/>
</svg>
